<?xml version="1.0" encoding="utf-8"?>
<!-- Generator: Adobe Illustrator 24.2.3, SVG Export Plug-In . SVG Version: 6.00 Build 0)  -->
<svg version="1.1" id="Calque_1" xmlns="http://www.w3.org/2000/svg" xmlns:xlink="http://www.w3.org/1999/xlink" x="0px" y="0px"
	 viewBox="0 0 192 192" style="enable-background:new 0 0 192 192;" xml:space="preserve">
<style type="text/css">
	.st0{fill:#CCCCCC;}
	.st1{fill:#2E6BB3;}
	.st2{fill:#004266;}
	.st3{clip-path:url(#SVGID_2_);fill:#F3972B;}
	.st4{clip-path:url(#SVGID_4_);}
	.st5{fill:#BABABA;}
	.st6{fill:#145A93;}
	.st7{fill:#013951;}
	.st8{clip-path:url(#SVGID_6_);fill:#DD8027;}
</style>
<g>
	<path class="st0" d="M96.5,151.9c-27.1,0-49.2-22.1-49.2-49.2v-50c0-27.1,22.1-49.2,49.2-49.2c27.1,0,49.2,22.1,49.2,49.2v50
		C145.7,129.8,123.6,151.9,96.5,151.9z M96.5,18c-19.1,0-34.7,15.6-34.7,34.7v50c0,19.1,15.6,34.7,34.7,34.7s34.7-15.6,34.7-34.7
		v-50C131.2,33.6,115.6,18,96.5,18z"/>
	<path class="st1" d="M158.2,188.2H34.8c-3.1,0-5.7-2.5-5.7-5.7V81c0-3.1,2.5-5.7,5.7-5.7h123.4c3.1,0,5.7,2.6,5.7,5.7v101.6
		C163.8,185.7,161.3,188.2,158.2,188.2z"/>
	<path class="st2" d="M108.6,119.6c0-6.7-5.4-12.1-12.1-12.1c-6.7,0-12.1,5.4-12.1,12.1c0,4.6,2.6,8.6,6.5,10.6v10.3
		c0,3.1,2.5,5.6,5.6,5.6s5.6-2.5,5.6-5.6v-10.3C105.9,128.3,108.6,124.3,108.6,119.6z"/>
	<g>
		<defs>
			<rect id="SVGID_1_" x="29.1" y="165.6" width="134.7" height="22.6"/>
		</defs>
		<clipPath id="SVGID_2_">
			<use xlink:href="#SVGID_1_"  style="overflow:visible;"/>
		</clipPath>
		<path class="st3" d="M158.2,188.2H34.8c-3.1,0-5.7-2.5-5.7-5.7V81c0-3.1,2.5-5.7,5.7-5.7h123.4c3.1,0,5.7,2.6,5.7,5.7v101.6
			C163.8,185.7,161.3,188.2,158.2,188.2z"/>
	</g>
</g>
<g>
	<defs>
		<rect id="SVGID_3_" x="96.5" y="3.5" width="67.3" height="184.7"/>
	</defs>
	<clipPath id="SVGID_4_">
		<use xlink:href="#SVGID_3_"  style="overflow:visible;"/>
	</clipPath>
	<g class="st4">
		<path class="st5" d="M96.5,151.9c-27.1,0-49.2-22.1-49.2-49.2v-50c0-27.1,22.1-49.2,49.2-49.2c27.1,0,49.2,22.1,49.2,49.2v50
			C145.7,129.8,123.6,151.9,96.5,151.9z M96.5,18c-19.1,0-34.7,15.6-34.7,34.7v50c0,19.1,15.6,34.7,34.7,34.7s34.7-15.6,34.7-34.7
			v-50C131.2,33.6,115.6,18,96.5,18z"/>
		<path class="st6" d="M158.2,188.2H34.8c-3.1,0-5.7-2.5-5.7-5.7V81c0-3.1,2.5-5.7,5.7-5.7h123.4c3.1,0,5.7,2.6,5.7,5.7v101.6
			C163.8,185.7,161.3,188.2,158.2,188.2z"/>
		<path class="st7" d="M108.6,119.6c0-6.7-5.4-12.1-12.1-12.1c-6.7,0-12.1,5.4-12.1,12.1c0,4.6,2.6,8.6,6.5,10.6v10.3
			c0,3.1,2.5,5.6,5.6,5.6s5.6-2.5,5.6-5.6v-10.3C105.9,128.3,108.6,124.3,108.6,119.6z"/>
		<g>
			<defs>
				<rect id="SVGID_5_" x="29.1" y="165.6" width="134.7" height="22.6"/>
			</defs>
			<clipPath id="SVGID_6_">
				<use xlink:href="#SVGID_5_"  style="overflow:visible;"/>
			</clipPath>
			<path class="st8" d="M158.2,188.2H34.8c-3.1,0-5.7-2.5-5.7-5.7V81c0-3.1,2.5-5.7,5.7-5.7h123.4c3.1,0,5.7,2.6,5.7,5.7v101.6
				C163.8,185.7,161.3,188.2,158.2,188.2z"/>
		</g>
	</g>
</g>
</svg>
