<?xml version="1.0" encoding="utf-8"?>
<!-- Generator: Adobe Illustrator 26.0.3, SVG Export Plug-In . SVG Version: 6.00 Build 0)  -->
<svg version="1.1" id="Calque_1" focusable="false" xmlns="http://www.w3.org/2000/svg" xmlns:xlink="http://www.w3.org/1999/xlink"
	 x="0px" y="0px" viewBox="0 0 512 512" style="enable-background:new 0 0 512 512;" xml:space="preserve">
<style type="text/css">
	.st0{fill:#FFFFFF;}
</style>
<path class="st0" d="M223.8,130.7L154.6,15.5C148.8,5.9,138.4,0,127.2,0H16C3.1,0-4.5,14.6,2.9,25.2l111.3,159
	C143.9,156.4,181.7,137.3,223.8,130.7L223.8,130.7z M496,0H384.8c-11.2,0-21.7,5.9-27.4,15.5l-69.1,115.2
	c42,6.6,79.8,25.6,109.6,53.4l111.3-159C516.5,14.6,508.9,0,496,0z M256,160c-97.2,0-176,78.8-176,176s78.8,176,176,176
	s176-78.8,176-176S353.2,160,256,160z M348.5,317.3l-37.9,37l9,52.2c1.6,9.4-8.3,16.5-16.6,12.1l-47-24.7l-46.9,24.6
	c-8.4,4.5-18.2-2.7-16.6-12.1l9-52.2l-37.9-37c-6.8-6.6-3.1-18.2,6.4-19.6l52.4-7.6l23.4-47.5c2.1-4.3,6.2-6.4,10.3-6.4
	c4.1,0,8.2,2.1,10.3,6.4l23.4,47.5l52.4,7.6C351.6,299,355.3,310.6,348.5,317.3z"/>
</svg>
