<?xml version="1.0" encoding="utf-8"?>
<!-- Generator: Adobe Illustrator 26.0.3, SVG Export Plug-In . SVG Version: 6.00 Build 0)  -->
<svg version="1.1" id="Layer_1" xmlns="http://www.w3.org/2000/svg" xmlns:xlink="http://www.w3.org/1999/xlink" x="0px" y="0px"
	 viewBox="0 0 50 44" style="enable-background:new 0 0 50 44;" xml:space="preserve">
<style type="text/css">
	.st0{fill:#FE893A;}
</style>
<path class="st0" d="M49.5,9.1L49.5,9.1l-4.1-6.9C44.6,0.8,43.2,0,41.6,0H9.4C8,0,6.6,0.8,5.8,1.9l-5,6.9C0.3,9.6,0,10.5,0,11.3v1.9
	c0,2.2,1.4,4.4,3.3,5.5v22.8c0,1.4,1.1,2.5,2.2,2.5l0,0H44c1.4,0,2.5-1.1,2.5-2.5V18.7c1.9-1.1,3.3-3.3,3.3-5.5v-1.9
	C50.1,10.5,50.1,9.6,49.5,9.1z M28.4,28.4v11h-6.6v-11H28.4z M19.5,23.7c-1.4,0-2.5,1.1-2.5,2.2v13.5H8.3V19.3
	c0.3,0,0.6-0.3,0.8-0.3c2.2,2.8,5.8,3.6,9.1,2.2c0.6-0.3,1.4-0.8,1.9-1.4c2.5,2.2,6.3,2.5,9.1,0.6c0.3-0.3,0.6-0.6,1.1-0.8
	c1.1,0.8,2.2,1.7,3.6,1.9c1.9,0.3,3.9,0,5.5-1.1c0.6-0.6,1.4-1.1,1.7-1.7c0.3,0.3,0.6,0.3,0.8,0.3v20.1H33V25.9
	c0-1.4-0.8-2.2-2.2-2.5C30.8,23.7,19.5,23.7,19.5,23.7z M42.7,13.8v-0.6c0-1.4-1.4-2.2-2.5-2.2l0,0c-1.1,0.3-2.2,1.1-2.2,2.5
	c0,0.3,0,0.6,0,1.1c0,0.6-0.3,1.4-0.8,1.7c-0.6,0.3-1.4,0.6-1.9,0.6c-1.4,0-2.5-1.1-2.5-2.5c-0.3-1.4-1.4-2.2-2.8-2.2
	c-1.1,0-1.9,1.1-2.2,2.2c0,0.8-0.3,1.4-0.8,1.9c-1.1,1.1-2.8,1.1-3.9,0c-0.6-0.6-0.8-1.4-0.8-1.9V14c0-1.4-1.1-2.2-2.5-2.2l0,0
	c-1.1,0-2.2,1.1-2.2,2.2c0,0.8-0.3,1.4-0.8,1.9c-1.1,1.1-2.8,0.8-3.9-0.3c-0.3-0.3-0.6-0.8-0.6-1.4V14c0-0.3,0-0.6,0-0.8
	c0-1.4-1.1-2.2-2.5-2.2l0,0c-1.4,0-2.2,0.8-2.5,2.2v0.3c0,0.3-0.3,0.8-0.6,0.8c-0.3,0.3-0.6,0.3-0.8,0.3C5.5,14.6,5,14,5,13.2v-1.7
	l4.7-6.9h31.9l3.9,6.6v1.9c0,0.3-0.3,0.8-0.3,1.1c-0.3,0.3-0.6,0.3-1.1,0.3l0,0C43.5,14.6,42.9,14.3,42.7,13.8L42.7,13.8z"/>
<path class="st0" d="M30.8,23.4"/>
</svg>
