<?xml version="1.0" encoding="utf-8"?>
<!-- Generator: Adobe Illustrator 26.0.3, SVG Export Plug-In . SVG Version: 6.00 Build 0)  -->
<svg version="1.1" id="Calque_1" xmlns="http://www.w3.org/2000/svg" xmlns:xlink="http://www.w3.org/1999/xlink" x="0px" y="0px"
	 viewBox="0 0 151.8 153.1" style="enable-background:new 0 0 151.8 153.1;" xml:space="preserve">
<style type="text/css">
	.st0{fill:#FE893A;}
</style>
<g>
	<path class="st0" d="M18,39.7h122.1c3.4,0,6.1-2.7,6.1-6.1c0-2.6-1.7-5-4.1-5.8L81.5,0.5c-1.6-0.7-3.4-0.7-5,0L15.5,28
		c-3.1,1.4-4.4,5-3.1,8.1C13.5,38.3,15.6,39.7,18,39.7z"/>
	<path class="st0" d="M132.4,104.5h0.3v-52h-0.3c1.7,0,3.1-2.3,3.1-4s-1.4-4-3.1-4H25.6c-1.7,0-3,2.3-3,4s1.4,4,3,4h2.1v7.3
		c0,0,8.2-7.7,10.9-7.8c1,0,2.8,0,4.7,0.1l75.3,0.2v52.2H69.4l12.2,15h50.8c3.4,0,6.1-4.1,6.1-7.5S135.8,104.5,132.4,104.5z"/>
</g>
<path class="st0" d="M144.8,119.5H81.6l13.9,16h49.4c3.8,0,6.9-4.4,6.9-8C151.8,123.9,148.6,119.5,144.8,119.5z"/>
<path class="st0" d="M82.1,146l-5.2,5.2c-1.2,1.1-2.8,1.8-4.4,1.8s-3.2-0.6-4.4-1.8l-17.6-17.6c-1.2-1.1-1.8-2.7-1.8-4.4
	c0-1.8,0.8-3.5,2.1-4.7l-12.4-12.4l-6.1,6.1c-0.9,0.9-2.4,0.9-3.3,0c1.5,1.4,2.8,2.5,2.8,4.8c0,1.2-0.5,2.4-1.4,3.3
	c-1.6,1.7-3.4,4.1-6,4.1c-1.2,0-2.4-0.5-3.3-1.4L1.4,109.3C0.5,108.4,0,107.2,0,106c0-2.6,2.3-4.4,4.1-6c0.9-0.9,2.1-1.4,3.3-1.4
	c2.2,0,3.3,1.4,4.8,2.8c-0.9-0.9-0.9-2.4,0-3.3L29,81.3c0.9-0.9,2.4-0.9,3.3,0c-1.5-1.4-2.8-2.5-2.8-4.8c0-1.2,0.5-2.4,1.4-3.3
	c1.6-1.7,3.4-4.1,6-4.1c1.2,0,2.4,0.5,3.3,1.4L60,90.3c0.9,0.9,1.4,2.1,1.4,3.3c0,2.6-2.3,4.4-4.1,6c-0.9,0.9-2.1,1.4-3.3,1.4
	c-2.2,0-3.3-1.4-4.8-2.8c0.9,0.9,0.9,2.4,0,3.3l-6.1,6.1L55.4,120c2.3-2.6,6.3-2.8,8.9-0.5c0.1,0.1,0.1,0.1,0.2,0.2l17.6,17.6
	c1.1,1.2,1.8,2.8,1.8,4.4C83.8,143.3,83.2,144.9,82.1,146z"/>
</svg>
