<?xml version="1.0" encoding="utf-8"?>
<!-- Generator: Adobe Illustrator 26.0.3, SVG Export Plug-In . SVG Version: 6.00 Build 0)  -->
<svg version="1.1" id="Calque_1" xmlns="http://www.w3.org/2000/svg" xmlns:xlink="http://www.w3.org/1999/xlink" x="0px" y="0px"
	 viewBox="0 0 494.2 494.2" style="enable-background:new 0 0 494.2 494.2;" xml:space="preserve">
<style type="text/css">
	.st0{fill:#21486D;}
</style>
<g>
	<path class="st0" d="M483.6,401.1L380,297.5c-7.4-7-16.1-10.6-26-10.6c-10.1,0-19.2,4.1-27.4,12.3l-73.1-73.1l36-36
		c2.7-2.7,4-5.9,4-9.7s-1.3-7-4-9.7c0.4,0.4,1.5,1.6,3.4,3.6s3.1,3.2,3.7,3.6c0.6,0.4,1.7,1.3,3.3,2.9c1.6,1.5,2.9,2.5,3.9,2.9
		s2.2,0.9,3.9,1.7c1.6,0.8,3.2,1.3,4.7,1.6s3.2,0.4,5.1,0.4c7.2,0,13.7-2.7,19.4-8c0.6-0.6,2.3-2.1,5.1-4.7c2.9-2.6,4.8-4.4,5.9-5.4
		c1-1,2.6-2.8,4.7-5.3s3.6-4.6,4.4-6.3c0.9-1.7,1.7-3.8,2.6-6.3s1.3-4.9,1.3-7.4c0-7.6-2.7-14.1-8-19.4L236.4,8
		c-5.3-5.3-11.8-8-19.4-8c-2.5,0-4.9,0.4-7.4,1.3S205,3,203.3,3.9s-3.8,2.3-6.3,4.4s-4.2,3.7-5.3,4.7c-1,1-2.9,3-5.4,5.9
		c-2.6,2.9-4.1,4.6-4.7,5.1c-5.3,5.7-8,12.2-8,19.4c0,1.9,0.1,3.6,0.4,5.1c0.3,1.5,0.8,3.1,1.6,4.7c0.8,1.6,1.3,2.9,1.7,3.9
		s1.3,2.2,2.9,3.9c1.5,1.6,2.5,2.7,2.9,3.3s1.6,1.8,3.6,3.7c2,1.9,3.2,3,3.6,3.4c-2.7-2.7-5.9-4-9.7-4s-7,1.3-9.7,4l-99.4,99.4
		c-2.7,2.7-4,5.9-4,9.7s1.3,7,4,9.7c-0.4-0.4-1.5-1.6-3.4-3.6s-3.1-3.2-3.7-3.6c-0.6-0.4-1.7-1.3-3.3-2.9c-1.6-1.5-2.9-2.5-3.9-2.9
		s-2.2-0.9-3.9-1.7c-1.6-0.8-3.2-1.3-4.7-1.6s-3.2-0.4-5.1-0.4c-7.2,0-13.7,2.7-19.4,8c-0.6,0.6-2.3,2.1-5.1,4.7
		c-2.9,2.6-4.8,4.4-5.9,5.4c-1,1-2.6,2.8-4.7,5.3s-3.6,4.6-4.4,6.3c-0.9,1.7-1.7,3.8-2.6,6.3c-1,2.6-1.4,5-1.4,7.5
		c0,7.6,2.7,14.1,8,19.4l116.5,116.5c5.3,5.3,11.8,8,19.4,8c2.5,0,4.9-0.4,7.4-1.3s4.6-1.7,6.3-2.6s3.8-2.3,6.3-4.4s4.2-3.7,5.3-4.7
		c1-1.1,2.9-3,5.4-5.9c2.6-2.9,4.1-4.6,4.7-5.1c5.3-5.7,8-12.2,8-19.4c0-1.9-0.1-3.6-0.4-5.1c-0.3-1.5-0.8-3.1-1.6-4.7
		s-1.3-2.9-1.7-3.9s-1.3-2.2-2.9-3.9c-1.5-1.6-2.5-2.7-2.9-3.3c-0.4-0.6-1.6-1.8-3.6-3.7c-2-1.9-3.2-3-3.6-3.4c2.7,2.7,5.9,4,9.7,4
		s7-1.3,9.7-4l36-36l73.1,73.1c-8.2,8.2-12.3,17.3-12.3,27.4c0,10.3,3.6,18.8,10.8,25.7l103.6,103.9c7,7,15.6,10.6,25.7,10.6
		c9.9,0,18.6-3.5,26-10.6l30.5-30.8c7-7,10.6-15.6,10.6-25.7C494.2,417.2,490.7,408.6,483.6,401.1z"/>
</g>
</svg>
