<?xml version="1.0" encoding="utf-8"?>
<!-- Generator: Adobe Illustrator 24.2.0, SVG Export Plug-In . SVG Version: 6.00 Build 0)  -->
<svg version="1.1" id="Layer_2" xmlns="http://www.w3.org/2000/svg" xmlns:xlink="http://www.w3.org/1999/xlink" x="0px" y="0px"
	 viewBox="0 0 289.4 47.1" style="enable-background:new 0 0 289.4 47.1;" xml:space="preserve">
<style type="text/css">
	.st0{display:none;fill:#FF8000;}
	.st1{fill:#57BBFF;}
	.st2{fill:#7DBA55;}
	.st3{fill:#FDBA19;}
	.st4{fill:#1E65AF;}
	.st5{fill:#FF8000;}
	.st6{fill:#7DB855;}
	.st7{fill:#FFFFFF;}
</style>
<g>
	<rect x="15.3" y="11.4" class="st0" width="7" height="7"/>
	<rect x="6.5" y="11.4" class="st1" width="5.7" height="7"/>
	<g>
		<rect x="11" y="1.1" class="st2" width="11.3" height="7.3"/>
	</g>
	<circle class="st3" cx="4.2" cy="5.2" r="4.2"/>
	<g>
		<g>
			<path class="st4" d="M72.4,1.1h-3.9c-0.4,0-0.6,0.3-0.6,0.6v32.7c0,0.4,0.3,0.6,0.6,0.6h3.9c0.4,0,0.6-0.3,0.6-0.6V1.7
				C73.1,1.3,72.8,1.1,72.4,1.1z"/>
			<path class="st4" d="M88,17.2c1.7,0,3.3,0.7,4.5,1.9c0.2,0.3,0.6,0.3,0.9,0l2.8-2.7c0.3-0.2,0.3-0.6,0-0.9
				C94.1,13.2,91.1,12,88,12c-6.4,0-11.5,5.2-11.5,11.5c0,6.4,5.2,11.5,11.5,11.5c3.1,0,6-1.2,8.2-3.4c0.2-0.2,0.2-0.7,0-0.9
				L93.3,28c-0.1-0.1-0.3-0.2-0.5-0.2c-0.2,0-0.3,0.1-0.5,0.2c-1.2,1.2-2.8,1.9-4.5,1.9c-3.5,0-6.3-2.8-6.3-6.3
				C81.6,20,84.5,17.2,88,17.2z"/>
			<path class="st4" d="M148.3,12c-2.7,0-5.3,1.1-7.1,3.1c-1.8-2-4.4-3.1-7.2-3.1c-1.6,0-3.1,0.4-4.5,1.1v-0.5
				c0-0.4-0.3-0.6-0.6-0.6h-3.9c-0.4,0-0.6,0.3-0.6,0.6v21.8c0,0.4,0.3,0.6,0.6,0.6h3.9c0.4,0,0.6-0.3,0.6-0.6l0-12.9
				c0.1-2.4,2.1-4.3,4.5-4.3c2.5,0,4.5,2,4.5,4.5v12.7c0,0.4,0.3,0.6,0.6,0.6h3.9c0.4,0,0.6-0.3,0.6-0.6V21.8c0-2.5,2-4.5,4.5-4.5
				c2.5,0,4.5,2,4.5,4.5v12.7c0,0.4,0.3,0.6,0.6,0.6h3.9c0.4,0,0.6-0.3,0.6-0.6V21.8C158.1,16.4,153.7,12,148.3,12z"/>
			<path class="st4" d="M38.1,1.1h-3.9c-0.4,0-0.6,0.3-0.6,0.6v11.4c1,0.6,1.8,1.3,2.6,2.1v1c0,0,0,0,0,0c-0.2-0.2-0.4-0.4-0.5-0.6
				c0,0,0-0.1-0.1-0.1c-2.1-2.2-5-3.5-8.2-3.5c-6.3,0-11.5,5.2-11.5,11.5c0,6.4,5.1,11.5,11.5,11.5c1,0,1.9-0.1,2.8-0.4
				c0.2-0.1,0.4-0.1,0.6-0.2c1-0.3,2-0.8,2.8-1.3v1.2c0,0.4,0.3,0.6,0.6,0.6h3.9c0.4,0,0.6-0.3,0.6-0.6V22.4v-0.7v-20
				C38.8,1.3,38.5,1.1,38.1,1.1z M32.7,26.9c-0.1,0.1-0.1,0.2-0.2,0.3c-0.4,0.6-0.9,1.1-1.5,1.5c-1,0.7-2.3,1.2-3.6,1.2
				c-3.5,0-6.3-2.9-6.3-6.4c0-3.5,2.8-6.4,6.3-6.4c3.2,0,5.8,2.4,6.3,5.5c0,0.1,0,0.3,0,0.4c0,0.2,0,0.3,0,0.5c0,0.2,0,0.3,0,0.5
				c0,0.1,0,0.3,0,0.4v0c0,0.2-0.1,0.3-0.1,0.5C33.3,25.6,33.1,26.3,32.7,26.9z"/>
			<path class="st4" d="M209.7,24.9c0.5,0,1-0.4,1-1c0-0.1,0-0.2,0-0.3c0-6.6-5.6-11.9-12.3-11.5c-5.7,0.4-10.4,5-10.8,10.8
				c-0.4,6.7,4.9,12.3,11.5,12.3c4.3,0,8-2.3,10-5.7c0.3-0.5-0.1-1.1-0.6-1.1l-4.6,0c-0.3,0-0.7,0.1-0.9,0.3
				c-1.2,0.9-2.8,1.4-4.4,1.3c-2.8-0.3-5.1-2.3-5.6-5H209.7z M200,17.2c2.4,0.3,4.4,2,5.2,4.3h-12C194.1,18.8,196.9,16.9,200,17.2z"
				/>
			<path class="st4" d="M119.9,12H116c-0.4,0-0.6,0.3-0.6,0.6v1.3c-1.9-1.2-4.1-1.9-6.3-1.9c-6.4,0-11.5,5.2-11.5,11.5
				s5.2,11.5,11.5,11.5c2.3,0,4.5-0.7,6.3-1.9v1.3c0,0.4,0.3,0.6,0.6,0.6h3.9c0.4,0,0.6-0.3,0.6-0.6V12.6
				C120.6,12.3,120.3,12,119.9,12z M115.4,23.5c0,3.5-2.8,6.3-6.3,6.3c-3.5,0-6.3-2.8-6.3-6.3c0-3.5,2.8-6.3,6.3-6.3
				C112.5,17.2,115.4,20,115.4,23.5z"/>
			<path class="st4" d="M173.4,12c-2.3,0-4.5,0.7-6.3,1.9v-1.3c0-0.4-0.3-0.6-0.6-0.6h-3.9c-0.4,0-0.6,0.3-0.6,0.6v32.8
				c0,0.4,0.3,0.6,0.6,0.6h3.9c0.4,0,0.6-0.3,0.6-0.6V33.2c1.9,1.2,4.1,1.9,6.3,1.9c6.4,0,11.5-5.2,11.5-11.5
				C184.9,17.2,179.7,12,173.4,12z M173.4,29.9c-3.5,0-6.3-2.8-6.3-6.3c0-3.5,2.8-6.3,6.3-6.3c3.5,0,6.3,2.8,6.3,6.3
				C179.7,27,176.9,29.9,173.4,29.9z"/>
		</g>
	</g>
	<g>
		<path class="st5" d="M22.3,12.5v-1h-7v7h1.1C17.6,15.8,19.7,13.7,22.3,12.5z"/>
	</g>
	<path class="st4" d="M63.8,24.9c0.5,0,1-0.4,1-1c0-0.1,0-0.2,0-0.3c0-6.6-5.6-11.9-12.3-11.5c-5.7,0.4-10.4,5-10.8,10.8
		c-0.4,6.7,4.9,12.3,11.5,12.3c4.3,0,8-2.3,10-5.7c0.3-0.5-0.1-1.1-0.6-1.1l-4.6,0c-0.3,0-0.7,0.1-0.9,0.3c-1.2,0.9-2.8,1.4-4.4,1.3
		c-2.8-0.3-5.1-2.3-5.6-5H63.8z M54.1,17.2c2.4,0.3,4.4,2,5.2,4.3h-12C48.2,18.8,51,16.9,54.1,17.2z"/>
</g>
<g>
	<path class="st6" d="M281.5,1.1h-53.1c-2.1,0-3.9,1.8-4.2,4.3l-5.4,35.1c-0.4,3,1.6,5.7,4.2,5.7H276c2.1,0,3.9-1.8,4.2-4.3
		l5.4-35.1C286,3.7,284,1.1,281.5,1.1z"/>
</g>
<path class="st6" d="M288.3,5l-5.9,38.4c-0.1,1-0.5,1.9-1.1,2.6h1.3c0.4-0.7,0.7-1.5,0.8-2.5l5.9-38.4c0.2-1.5-0.1-2.9-0.8-4.1h-1.4
	C288,2.1,288.4,3.6,288.3,5z"/>
<g>
	<path class="st7" d="M257,18.8l-0.1,0.9c-0.9-1-2.1-1.7-3.4-1.9c-3.1-0.5-6.1,1.7-6.5,4.8c-0.5,3.1,1.7,6.1,4.8,6.5
		c1.4,0.2,2.7-0.1,3.8-0.8l-0.1,0.9c0.1,0,0.1,0,0.2,0h1.9l1.5-10.5H257z M256.2,24.1c-0.3,2-2.2,3.4-4.2,3.1
		c-2-0.3-3.4-2.2-3.1-4.2c0.3-2,2.2-3.4,4.2-3.1C255.1,20.2,256.5,22.1,256.2,24.1z"/>
	<polygon class="st7" points="262.1,35.1 264.6,35.1 272.3,18.8 269.8,18.8 266.4,25.9 264.1,18.8 261.7,18.8 264.8,29.3 	"/>
	<path class="st7" d="M240.1,12.2l-0.6-0.1H237h-2.1h-0.1l0,0.1l-2.7,17h2.2l0.8-5.2c1.7,0,4,0,4.2,0c0.3,0,0.5,0,0.8-0.1h0
		c3-0.4,5.2-2.9,5.2-6S243,12.6,240.1,12.2z M239.9,22L239.9,22c-0.2,0-0.3,0-0.5,0c-0.2,0-3.8,0-3.8,0l1.1-7.6h2.8l0.4,0
		c1.9,0.2,3.3,1.9,3.3,3.8C243.2,20.1,241.7,21.7,239.9,22z"/>
</g>
</svg>
